<svg width="current" height="current" viewBox="0 0 24 24" fill="none" xmlns="http://www.w3.org/2000/svg">
<g id="Icon/book-opened">
<path id="Rectangle 2" fill-rule="evenodd" clip-rule="evenodd" d="M12 20C12 20 12 6 12 6C12 6 10 4 8.00001 4C6.00001 4 3.00001 6 3.00001 6C3.00001 6 3.00001 20 3.00001 20C3.00001 20 6 18 8.00001 18C10 18 12 20 12 20Z" stroke="black" stroke-linecap="round" stroke-linejoin="round"/>
<path id="Rectangle 2_2" fill-rule="evenodd" clip-rule="evenodd" d="M12 20C12 20 12 6 12 6C12 6 14 4 16 4C18 4 21 6 21 6C21 6 21 20 21 20C21 20 18 18 16 18C14 18 12 20 12 20Z" stroke="black" stroke-linecap="round" stroke-linejoin="round"/>
</g>
</svg>
