<svg width="2.3rem" height="2.1rem" viewBox="0 0 23 21" fill="none" xmlns="http://www.w3.org/2000/svg">
<path d="M11.314 4.68388L10.6642 4.05343C10.5296 3.92292 10.4002 3.79787 10.2744 3.67639C10.0546 3.46404 9.8461 3.2626 9.64146 3.06196C8.00072 1.45418 5.74236 0.998979 3.93299 1.78021L3.93283 1.78028C2.11907 2.56299 0.857025 4.55646 0.901114 6.78829L0.901115 6.78835C0.934423 8.4802 1.64327 9.98035 2.67634 11.4646L2.67663 11.465C4.93146 14.7083 7.99036 17.1444 11.2533 19.5303C13.6308 17.7994 15.895 16.0131 17.8503 13.8979L18.5111 14.5088L17.8503 13.8979C19.5094 12.1031 20.8746 10.2876 21.4325 8.03964L21.4326 8.0394C22.0207 5.67278 21.0148 3.20722 19.1001 2.05506L11.314 4.68388ZM11.314 4.68388L11.9405 4.03026M11.314 4.68388L11.9405 4.03026M11.9405 4.03026C12.0847 3.87989 12.212 3.74179 12.3318 3.61195C12.5615 3.36276 12.7633 3.14397 13.0019 2.92722L13.0023 2.9269M11.9405 4.03026L13.0023 2.9269M13.0023 2.9269C14.8653 1.23296 17.2782 0.959449 19.1 2.05496L13.0023 2.9269Z" fill="#FE0135" stroke="#FE0135" stroke-width="1.8"/>
</svg>
