<svg width="91" height="75" viewBox="0 0 102 84" fill="none" xmlns="http://www.w3.org/2000/svg">
<path d="M4.25 63C4.25 55.125 17 55.125 23.375 49.875C26.5625 47.25 17 47.25 17 34.125C17 25.3759 21.2489 21 29.75 21C38.2511 21 42.5 25.3759 42.5 34.125C42.5 47.25 32.9375 47.25 36.125 49.875C42.5 55.125 55.25 55.125 55.25 63" stroke="black" stroke-width="2" stroke-linecap="round"/>
<path d="M50.9777 56.8509C53.3874 55.4832 56.5156 54.4985 59.509 53.3112C61.8493 52.3829 64.1073 51.3308 65.875 49.875C69.0625 47.25 59.5 47.25 59.5 34.125C59.5 25.3759 63.749 21 72.25 21C80.7511 21 85 25.3759 85 34.125C85 47.25 75.4375 47.25 78.625 49.875C85 55.125 97.75 55.125 97.75 63" stroke="black" stroke-width="2" stroke-linecap="round"/>
</svg>
