<svg width="75" height="75" viewBox="0 0 68 68" fill="none" xmlns="http://www.w3.org/2000/svg">
<path d="M38.1642 29.6644L37.2531 29.2523C37.0816 29.6315 37.1629 30.0772 37.4571 30.3715L38.1642 29.6644ZM15.3373 7.32352L14.9056 6.42149C14.6129 6.56156 14.4064 6.83496 14.3516 7.1548C14.2969 7.47465 14.4007 7.80117 14.6302 8.03062L15.3373 7.32352ZM27.7048 19.691L28.4119 20.3981C28.5994 20.2106 28.7048 19.9563 28.7048 19.691C28.7048 19.4258 28.5994 19.1715 28.4119 18.9839L27.7048 19.691ZM19.6909 27.7049L18.9838 28.412C19.3743 28.8025 20.0075 28.8025 20.398 28.412L19.6909 27.7049ZM7.32339 15.3374L8.0305 14.6303C7.80105 14.4008 7.47452 14.297 7.15468 14.3517C6.83483 14.4065 6.56144 14.613 6.42136 14.9057L7.32339 15.3374ZM27.6049 38.9384L28.312 38.2313C28.0512 37.9704 27.6679 37.8744 27.3149 37.9814L27.6049 38.9384ZM51.0024 62.3359L50.2953 63.043H50.2953L51.0024 62.3359ZM53.8308 62.3359L54.5379 63.043H54.5379L53.8308 62.3359ZM60.9191 55.2476L60.212 54.5405L60.9191 55.2476ZM38.6666 22.6667C38.6666 25.0163 38.1608 27.2451 37.2531 29.2523L39.0754 30.0764C40.0979 27.8154 40.6666 25.3061 40.6666 22.6667H38.6666ZM22.6666 6.66675C31.5032 6.66675 38.6666 13.8302 38.6666 22.6667H40.6666C40.6666 12.7256 32.6077 4.66675 22.6666 4.66675V6.66675ZM15.7689 8.22555C17.8563 7.22662 20.1947 6.66675 22.6666 6.66675V4.66675C19.8896 4.66675 17.2568 5.29633 14.9056 6.42149L15.7689 8.22555ZM28.4119 18.9839L16.0444 6.61641L14.6302 8.03062L26.9977 20.3981L28.4119 18.9839ZM20.398 28.412L28.4119 20.3981L26.9977 18.9839L18.9838 26.9978L20.398 28.412ZM6.61629 16.0445L18.9838 28.412L20.398 26.9978L8.0305 14.6303L6.61629 16.0445ZM6.66663 22.6667C6.66663 20.1948 7.2265 17.8564 8.22543 15.7691L6.42136 14.9057C5.29621 17.2569 4.66663 19.8897 4.66663 22.6667H6.66663ZM22.6666 38.6667C13.8301 38.6667 6.66663 31.5033 6.66663 22.6667H4.66663C4.66663 32.6079 12.7255 40.6667 22.6666 40.6667V38.6667ZM27.3149 37.9814C25.8451 38.4268 24.2848 38.6667 22.6666 38.6667V40.6667C24.4835 40.6667 26.2392 40.3973 27.895 39.8954L27.3149 37.9814ZM51.7095 61.6288L28.312 38.2313L26.8978 39.6455L50.2953 63.043L51.7095 61.6288ZM53.1237 61.6288C52.7332 62.0193 52.1 62.0193 51.7095 61.6288L50.2953 63.043C51.4669 64.2145 53.3664 64.2145 54.5379 63.043L53.1237 61.6288ZM60.212 54.5405L53.1237 61.6288L54.5379 63.043L61.6262 55.9547L60.212 54.5405ZM60.212 53.1263C60.6025 53.5168 60.6025 54.15 60.212 54.5405L61.6262 55.9547C62.7978 54.7832 62.7978 52.8837 61.6262 51.7121L60.212 53.1263ZM37.4571 30.3715L60.212 53.1263L61.6262 51.7121L38.8713 28.9572L37.4571 30.3715Z" fill="black"/>
</svg>
