<svg width="current" height="current" viewBox="0 0 24 24" fill="none" xmlns="http://www.w3.org/2000/svg">
<g id="Icon/user">
<path id="Path 4" d="M5.5 19.5C5.5 19.5 9 18 10 17C11 16 8 16 8 11C8 6 12 6 12 6C12 6 16 6 16 11C16 16 13 16 14 17C15 18 18.5 19.5 18.5 19.5" stroke="black" stroke-linecap="round"/>
<path id="Oval" fill-rule="evenodd" clip-rule="evenodd" d="M12 22C17.5228 22 22 17.5228 22 12C22 6.47715 17.5228 2 12 2C6.47715 2 2 6.47715 2 12C2 17.5228 6.47715 22 12 22Z" stroke="black"/>
</g>
</svg>
